<?xml version="1.0" encoding="utf-8"?>
<!-- Generator: Adobe Illustrator 25.4.1, SVG Export Plug-In . SVG Version: 6.00 Build 0)  -->
<svg version="1.1" id="Layer_1" xmlns="http://www.w3.org/2000/svg" xmlns:xlink="http://www.w3.org/1999/xlink" x="0px" y="0px"
	 viewBox="0 0 360 180" style="enable-background:new 0 0 360 180;" xml:space="preserve">
<style type="text/css">
	.st0{fill:#e2e2e2;}
</style>
<g>
	<path class="st0" d="M100.28,10.26v40h30v65c0,8.28-6.72,15-15,15h-50c-8.28,0-15-6.72-15-15v-15h-40v40c0,16.57,13.43,30,30,30
		h100c16.57,0,30-13.43,30-30v-130H100.28z"/>
	<path class="st0" d="M102.78,110.26h-25c-4.14,0-7.5-3.36-7.5-7.5v-25c0-4.14,3.36-7.5,7.5-7.5h25c4.14,0,7.5,3.36,7.5,7.5v25
		C110.28,106.91,106.92,110.26,102.78,110.26z"/>
	<path class="st0" d="M257.78,110.26h25c4.14,0,7.5-3.36,7.5-7.5v-25c0-4.14-3.36-7.5-7.5-7.5h-25c-4.14,0-7.5,3.36-7.5,7.5v25
		C250.28,106.91,253.64,110.26,257.78,110.26z"/>
	<path class="st0" d="M310.28,130.26h-15h-5h-45c-8.28,0-15-6.72-15-15v-55v-10v-40h-40v130c0,16.57,13.43,30,30,30h90h10h30v-30
		v-10H310.28z"/>
	<g>
		<path class="st0" d="M310.28,65.26v45h40l0-70c0-16.57-13.43-30-30-30h-70v40h45C303.56,50.26,310.28,56.98,310.28,65.26z"/>
		<polygon class="st0" points="310.28,170.26 350.28,170.26 350.28,170.26 		"/>
	</g>
</g>
</svg>
