<?xml version="1.0" encoding="utf-8"?>
<!-- Generator: Adobe Illustrator 25.4.1, SVG Export Plug-In . SVG Version: 6.00 Build 0)  -->
<svg version="1.1" id="Layer_1" xmlns="http://www.w3.org/2000/svg" xmlns:xlink="http://www.w3.org/1999/xlink" x="0px" y="0px"
	 viewBox="0 0 200 200" style="enable-background:new 0 0 200 200;" xml:space="preserve">
<style type="text/css">
	.st0{opacity:0.64;}
	.st1{fill:#333333;}
	.st2{fill:#F7F7F7;}
	.st3{font-family:'Helvetica-Bold';}
	.st4{font-size:8.5237px;}
</style>
<g class="st0">
	<path class="st1" d="M19.8,199.92H180.2c10.94,0,19.8-8.87,19.8-19.8V19.8C200,8.87,191.13,0,180.2,0H19.8C8.87,0,0,8.87,0,19.8
		v160.31C0,191.05,8.87,199.92,19.8,199.92z"/>
</g>
<g>
	<text transform="matrix(0.9981 0 0 1 135.7461 135.3447)" class="st2 st3 st4">yo</text>
	<g>
		<path class="st2" d="M155.47,67.35v18.3h-18.28c-16.31,0-42.17-6.92-42.17-25.5h-3.54c0,19.07-5.88,25.5-23.27,25.5H49.93v-18.3
			c0-18.09,14.68-32.79,32.72-32.79h40.1C140.79,34.56,155.47,49.27,155.47,67.35z"/>
		<g>
			<path class="st2" d="M130.6,101.08c-1.85-2.09-4.55-3.4-7.53-3.4c-2.99,0-5.68,1.31-7.54,3.4
				C120.46,99.86,125.66,99.86,130.6,101.08z"/>
			<path class="st2" d="M117.1,104.35c-1.32,0.29-2.63,0.67-3.9,1.16c-0.19,0.75-0.28,1.54-0.28,2.35v0.04c0,0.07,0,0.15,0.01,0.22
				c0.01,0.57,0.07,1.12,0.17,1.66c0.01,0.06,0.02,0.12,0.03,0.18c0.95,4.66,5.05,8.17,9.94,8.17c5.59,0,10.14-4.59,10.14-10.23
				c0-0.82-0.09-1.62-0.28-2.39c-1.28-0.49-2.6-0.87-3.93-1.16C125.08,103.5,121,103.5,117.1,104.35z M123.05,111.56
				c-1.96,0-3.54-1.59-3.54-3.55c0-1.96,1.59-3.55,3.54-3.55c1.96,0,3.54,1.59,3.54,3.55C126.59,109.98,125.01,111.56,123.05,111.56
				z"/>
			<path class="st2" d="M91.99,105.56c-1.27-0.49-2.57-0.87-3.89-1.16c-3.91-0.85-7.98-0.85-11.89,0c-1.34,0.28-2.65,0.68-3.93,1.17
				c-0.19,0.77-0.28,1.57-0.28,2.39c0,5.64,4.55,10.22,10.14,10.22c4.85,0,8.92-3.45,9.91-8.05c0.15-0.7,0.23-1.43,0.23-2.17
				c0-0.06,0-0.12-0.01-0.18C92.26,107.01,92.17,106.27,91.99,105.56z M82.14,111.61c-1.96,0-3.54-1.59-3.54-3.55
				s1.59-3.55,3.54-3.55c1.96,0,3.54,1.59,3.54,3.55S84.09,111.61,82.14,111.61z"/>
			<path class="st2" d="M150.69,122.76h-1.16c0.63-2.97,0.95-6.06,0.95-9.22V89.21h-13.29c-2.2,0-4.4-0.1-6.58-0.31h-19.24v-3.55
				h2.5c-2.34-0.82-4.56-1.77-6.61-2.83c-6.11-3.14-10.51-7.13-13.09-11.79c-1.29,6.92-4.09,11.67-8.73,14.62h8.08v3.55H74.15
				c-1.85,0.2-3.83,0.31-5.95,0.31H54.94v24.33c0,24.69,19.97,44.7,44.61,44.7h6.32c14.15,0,26.75-6.59,34.92-16.89h9.89
				c3.13,0,5.67-2.55,5.67-5.68v-7.22C156.36,125.31,153.82,122.76,150.69,122.76z M95.5,110.88c-1.7,9.77-10.23,17.21-20.45,17.21
				v-3.55c3.64,0,7.03-1.14,9.82-3.09c-0.89,0.18-1.8,0.28-2.74,0.28c-7.56,0-13.68-6.16-13.68-13.77s6.12-13.78,13.68-13.78
				c7.33,0,13.32,5.81,13.67,13.1c0.01,0.15,0.01,0.29,0.01,0.44C95.8,108.79,95.69,109.85,95.5,110.88z M109.65,110.68
				c-0.02-0.11-0.04-0.22-0.06-0.33c-0.12-0.8-0.2-1.62-0.22-2.45v-0.08c0-0.2,0.01-0.39,0.01-0.59c0.35-7.29,6.33-13.1,13.67-13.1
				c7.56,0,13.68,6.16,13.68,13.77c0,7.61-6.12,13.78-13.68,13.78c-0.94,0-1.85-0.09-2.74-0.28c2.36,1.65,5.13,2.72,8.14,3.01
				c-0.89,0.88-1.49,2.05-1.64,3.36C118.06,126.37,111.11,119.44,109.65,110.68z M154.18,135.66c0,1.93-1.56,3.5-3.49,3.5h-25.26
				c-1.05,0-1.29-1.46-0.31-1.81l2.04-1.49c1.13-0.83,1.8-2.15,1.8-3.56v-3.86c0-0.15,0.01-0.29,0.03-0.44
				c0.11-0.87,0.52-1.63,1.14-2.17c0.62-0.55,1.43-0.89,2.32-0.89h18.24c1.93,0,3.49,1.57,3.49,3.5V135.66z"/>
			<path class="st2" d="M89.67,101.12c-1.86-2.08-4.55-3.4-7.54-3.4c-3,0-5.69,1.32-7.54,3.41C79.53,99.91,84.73,99.9,89.67,101.12z
				"/>
		</g>
		<g>
			<path class="st2" d="M55.08,200L55.08,200c0-19.44,13.72-35.2,30.65-35.2h34.05c16.93,0,30.65,15.76,30.65,35.2v0H55.08z"/>
		</g>
	</g>
</g>
</svg>
