<?xml version="1.0" encoding="utf-8"?>
<!-- Generator: Adobe Illustrator 25.4.1, SVG Export Plug-In . SVG Version: 6.00 Build 0)  -->
<svg version="1.1" id="Layer_1" xmlns="http://www.w3.org/2000/svg" xmlns:xlink="http://www.w3.org/1999/xlink" x="0px" y="0px"
	 viewBox="0 0 300 200" style="enable-background:new 0 0 300 200;" xml:space="preserve">
<style type="text/css">
	.st0{fill:none;}
	.st1{fill:#C5C1B7;}
</style>
<rect x="0.5" y="4.5" class="st0" width="299" height="192"/>
<g>
	<g>
		<g>
			<path class="st1" d="M95.24,39.94c0.76,0,0.76-1.18,0-1.18C94.48,38.76,94.48,39.94,95.24,39.94L95.24,39.94z"/>
		</g>
	</g>
	<g>
		<g>
			<path class="st1" d="M207.76,47.27c0.76,0,0.76-1.18,0-1.18C207,46.09,207,47.27,207.76,47.27L207.76,47.27z"/>
		</g>
	</g>
	<g>
		<g>
			<path class="st1" d="M104.56,155.72c1.52,0,1.52-2.36,0-2.36C103.04,153.36,103.04,155.72,104.56,155.72L104.56,155.72z"/>
		</g>
	</g>
	<g>
		<g>
			<path class="st1" d="M153.83,92.54c0.76,0,0.76-1.18,0-1.18C153.07,91.36,153.07,92.54,153.83,92.54L153.83,92.54z"/>
		</g>
	</g>
	<g>
		<g>
			<path class="st1" d="M160.49,135.15c0.76,0,0.76-1.18,0-1.18C159.73,133.97,159.73,135.15,160.49,135.15L160.49,135.15z"/>
		</g>
	</g>
	<g>
		<g>
			<path class="st1" d="M80.59,65.17c1.52,0,1.52-2.36,0-2.36C79.08,62.81,79.07,65.17,80.59,65.17L80.59,65.17z"/>
		</g>
	</g>
	<g>
		<g>
			<path class="st1" d="M240.39,162.45c0.76,0,0.76-1.18,0-1.18C239.63,161.27,239.63,162.45,240.39,162.45L240.39,162.45z"/>
		</g>
	</g>
	<g>
		<g>
			<path class="st1" d="M281,45.27c0.76,0,0.76-1.18,0-1.18C280.24,44.09,280.24,45.27,281,45.27L281,45.27z"/>
		</g>
	</g>
	<g>
		<g>
			<path class="st1" d="M220.41,68.5c1.52,0,1.52-2.36,0-2.36C218.89,66.14,218.89,68.5,220.41,68.5L220.41,68.5z"/>
		</g>
	</g>
	<g>
		<g>
			<path class="st1" d="M281,83.89c0.76,0,0.76-1.18,0-1.18C280.24,82.71,280.24,83.89,281,83.89L281,83.89z"/>
		</g>
	</g>
	<g>
		<g>
			<path class="st1" d="M24,129.83c0.76,0,0.76-1.18,0-1.18C23.24,128.65,23.24,129.83,24,129.83L24,129.83z"/>
		</g>
	</g>
	<g>
		<g>
			<path class="st1" d="M53.3,43.27c0.76,0,0.76-1.18,0-1.18C52.54,42.09,52.54,43.27,53.3,43.27L53.3,43.27z"/>
		</g>
	</g>
	<g>
		<g>
			<path class="st1" d="M200.44,147.73c1.52,0,1.52-2.36,0-2.36C198.92,145.37,198.92,147.73,200.44,147.73L200.44,147.73z"/>
		</g>
	</g>
	<g>
		<g>
			<path class="st1" d="M186.46,89.8c1.52,0,1.52-2.36,0-2.36C184.94,87.44,184.94,89.8,186.46,89.8L186.46,89.8z"/>
		</g>
	</g>
	<g>
		<g>
			<path class="st1" d="M64.61,171.11c0.76,0,0.76-1.18,0-1.18C63.86,169.93,63.85,171.11,64.61,171.11L64.61,171.11z"/>
		</g>
	</g>
	<g>
		<g>
			<path class="st1" d="M160.49,25.88c1.52,0,1.52-2.36,0-2.36C158.97,23.53,158.97,25.88,160.49,25.88L160.49,25.88z"/>
		</g>
	</g>
	<g>
		<path class="st1" d="M104.09,126.1c9.96,0,19.92,0.09,29.87-0.06c2.53-0.04,4.3,0.72,5.98,2.54c2.75,2.97,5.69,5.77,8.6,8.59
			c1.47,1.43,1.56,1.37,2.95-0.01c3.12-3.09,6.31-6.12,9.36-9.28c1.26-1.31,2.6-1.83,4.41-1.82c14.1,0.06,28.2,0.03,42.3,0.04
			c6.43,0,12.87,0,19.3,0c0.79,0,1.58,0.03,2.37,0.11c0.49,0.05,0.78,0.39,0.79,0.89c0.01,0.5-0.26,0.88-0.75,0.92
			c-1.05,0.09-2.11,0.15-3.16,0.15c-19.03,0-38.07-0.04-57.1,0c-6.37,0.01-4.34-0.81-8.92,3.65c-2.21,2.15-4.38,4.34-6.54,6.54
			c-1.85,1.88-1.85,1.93-0.06,3.76c2.28,2.33,4.62,4.6,6.9,6.93c1.85,1.88,1.85,1.94,0.03,3.78c-2.17,2.2-4.37,4.35-6.54,6.54
			c-2.4,2.42-2.45,2.13,0.08,4.7c0.99,1,2,1.99,3.05,2.92c0.93,0.82,0.95,1.56,0.07,2.43c-1.94,1.92-3.84,3.88-5.75,5.84
			c-0.86,0.89-1.6,0.8-2.45-0.09c-1.89-1.97-3.83-3.89-5.8-5.78c-0.92-0.88-0.86-1.58,0.04-2.42c1.35-1.26,2.69-2.54,3.94-3.9
			c1.18-1.29,1.16-1.56-0.1-2.84c-2.46-2.52-4.99-4.98-7.45-7.5c-1.6-1.64-1.61-1.79-0.03-3.42c2.39-2.47,4.86-4.86,7.25-7.32
			c1.59-1.64,1.6-1.77-0.01-3.41c-2.83-2.9-5.77-5.69-8.57-8.63c-1.26-1.32-2.62-1.8-4.43-1.79c-15.95,0.05-31.9,0.03-47.85,0.03
			c-4.23,0-8.46-0.01-12.69-0.01c-0.62,0-1.23-0.01-1.85-0.05c-0.68-0.05-1.21-0.3-1.15-1.11c0.06-0.68,0.59-0.81,1.13-0.83
			c0.79-0.04,1.59-0.05,2.38-0.05c10.13,0,20.27,0,30.4,0C104.09,126.11,104.09,126.1,104.09,126.1z M158.74,150.87
			c-0.07-0.15-0.12-0.34-0.24-0.45c-2.53-2.56-5.07-5.11-7.6-7.66c-0.66-0.67-1.23-0.45-1.81,0.13c-2.36,2.37-4.72,4.74-7.11,7.09
			c-0.71,0.7-0.71,1.38-0.04,2.06c2.35,2.38,4.72,4.74,7.07,7.12c0.7,0.71,1.33,0.67,2.03-0.04c2.35-2.38,4.73-4.73,7.09-7.1
			C158.43,151.69,158.74,151.37,158.74,150.87z M154.64,168.05c-0.3-0.35-0.67-0.84-1.1-1.26c-3.85-3.68-2.8-4.28-7.14,0.06
			c-1.35,1.35-1.3,1.39-0.07,2.73c3.74,4.08,4.28,4.06,7.76-0.24C154.36,169,154.72,168.72,154.64,168.05z"/>
		<path class="st1" d="M149.86,81.52c-24.93,0-49.85,0-74.78,0c-1.15,0-2.29,0-3.43-0.03c-0.69-0.02-1.53,0.08-1.58-0.94
			c-0.05-1.14,0.84-1.18,1.65-1.2c1.23-0.04,2.47-0.04,3.7-0.04c39.81,0,79.62,0,119.44,0.01c10.48,0,20.96,0,31.44,0.01
			c0.97,0,1.94,0.05,2.9,0.15c0.62,0.07,0.88,0.54,0.81,1.14c-0.05,0.5-0.4,0.79-0.88,0.82c-1.14,0.06-2.29,0.09-3.43,0.09
			C200.42,81.52,175.14,81.52,149.86,81.52z"/>
		<path class="st1" d="M81.8,103.51c-0.34-5.16,4.4-11.38,10.85-11.22c5.91,0.15,10.61,5.21,10.54,11.59
			c-0.08,6.22-4.8,11.08-10.75,11.05C86.39,114.91,81.77,109.94,81.8,103.51z M99.37,103.61c-0.02-4.07-2.93-7.34-6.65-7.45
			c-3.89-0.12-7.04,3.08-7.12,7.24c-0.08,4.37,2.92,7.72,6.91,7.69C96.44,111.06,99.39,107.84,99.37,103.61z"/>
		<path class="st1" d="M214.53,103.75c-0.02,6.22-4.69,11.16-10.59,11.2c-6.06,0.03-10.93-5.13-10.85-11.52
			c0.07-6.08,4.91-11.05,10.78-11.08C209.82,92.33,214.55,97.39,214.53,103.75z M210.78,103.8c0.09-4.14-2.95-7.58-6.77-7.65
			c-3.89-0.07-7.04,3.15-7.12,7.29c-0.08,4.17,2.89,7.52,6.77,7.64C207.54,111.21,210.69,107.99,210.78,103.8z"/>
		<path class="st1" d="M167.38,103.49c0-2.99-0.03-5.98,0.01-8.96c0.03-2.13,0.08-2.16,2.29-2.17c1.76-0.01,3.53-0.05,5.27,0.14
			c4.21,0.46,6.92,2.9,7.85,7.03c0.6,2.69,0.62,5.43,0.07,8.12c-0.86,4.26-3.61,6.7-8.01,7.15c-1.66,0.17-3.34,0.14-5,0.13
			c-2.46-0.01-2.54-0.09-2.6-2.48c-0.04-1.49-0.01-2.99-0.02-4.48c0-1.49,0-2.99,0-4.48C167.29,103.49,167.34,103.49,167.38,103.49z
			 M170.78,103.34c-0.01,0-0.01,0-0.02,0c0,2.2-0.01,4.4,0,6.59c0,0.73,0.09,1.34,1.05,1.52c3.8,0.71,7.11-1.5,7.81-5.32
			c0.27-1.48,0.24-2.98,0.04-4.47c-0.54-4.04-3.23-6.18-7.31-5.95c-1.09,0.06-1.61,0.41-1.59,1.55
			C170.81,99.29,170.78,101.32,170.78,103.34z"/>
		<path class="st1" d="M59.44,102.53c0,1.82,0.01,3.64,0,5.46c-0.01,1.76-0.06,3.52-0.06,5.28c0,1.07-0.39,1.62-1.54,1.64
			c-1.18,0.02-1.82-0.37-1.81-1.65c0.05-6.52,0.08-13.03,0.12-19.55c0-0.14,0.17-0.27,0.46-0.72c4,3.96,7.5,8.31,11.35,12.27
			c0.96-0.34,0.57-1.07,0.59-1.59c0.08-3.26,0.11-6.52,0.12-9.77c0-1.12,0.51-1.55,1.61-1.55c1.06,0,1.66,0.31,1.66,1.49
			c-0.01,6.52,0.02,13.03,0.02,19.55c0,0.24-0.04,0.54-0.74,0.75c-1.36-0.84-2.38-2.38-3.63-3.66c-1.35-1.39-2.68-2.8-4-4.21
			c-1.23-1.31-2.43-2.65-3.64-3.97C59.78,102.37,59.61,102.45,59.44,102.53z"/>
		<path class="st1" d="M113.59,93.16c3.72,4.05,7.44,8.1,11.65,12.68c0.04-2.25,0.07-3.87,0.09-5.49c0.03-2.2,0.07-4.4,0.07-6.6
			c0-1.23,0.76-1.4,1.75-1.4c0.94,0,1.51,0.28,1.5,1.34c-0.04,6.68,0.28,13.36-0.09,20.04c0,0.07-0.08,0.14-0.23,0.38
			c-1.77-0.68-2.66-2.37-3.93-3.58c-1.4-1.33-2.66-2.81-3.97-4.23c-1.26-1.35-2.51-2.7-3.79-4.07c-0.77,0.41-0.44,1.09-0.45,1.61
			c-0.06,3.17-0.08,6.33-0.08,9.5c0,1.12-0.54,1.57-1.63,1.54c-0.87-0.03-1.61-0.15-1.62-1.25c0-6.75,0-13.5,0-20.25
			C113.11,93.32,113.35,93.24,113.59,93.16z"/>
		<path class="st1" d="M243.49,114.5c-2.98,0.74-3.17,0.68-4.77-1.68c-1.13-1.67-2.23-3.37-3.41-5.01
			c-1.03-1.43-1.29-1.42-2.28-0.05c-1.23,1.72-2.4,3.48-3.59,5.23c-1.51,2.21-1.67,2.26-4.67,1.45c0.23-1.25,1.09-2.17,1.72-3.19
			c1.43-2.33,2.89-4.64,4.38-6.93c0.65-1,0.71-1.85,0.01-2.89c-1.43-2.11-2.68-4.35-4.12-6.46c-0.53-0.78-1.48-1.41-0.65-2.4
			c0.48-0.58,2.92-0.22,3.42,0.46c0.94,1.28,1.77,2.63,2.65,3.95c1.95,2.92,1.95,2.92,3.86,0.06c0.59-0.88,1.16-1.77,1.75-2.64
			c1.57-2.32,1.57-2.32,4.61-1.72c0.04,1.24-0.83,2.07-1.4,3.02c-1.13,1.88-2.26,3.77-3.52,5.56c-0.86,1.22-0.7,2.16,0.1,3.33
			c1.69,2.47,3.25,5.03,4.82,7.59C242.84,112.91,243.57,113.52,243.49,114.5z"/>
		<path class="st1" d="M148.24,92.98c1.72,4.05,3.37,7.92,5,11.8c1.12,2.68,2.24,5.36,3.31,8.06c0.23,0.59,0.86,1.27,0.08,1.89
			c-0.63,0.5-2.4,0.18-2.88-0.49c-0.2-0.28-0.37-0.62-0.45-0.95c-0.31-1.32-1.24-1.52-2.41-1.49c-1.93,0.05-3.87,0.07-5.81,0
			c-1.3-0.05-2.22,0.3-2.62,1.64c-0.15,0.5-0.33,1.06-0.86,1.27c-0.75,0.29-1.62,0.4-2.29-0.04c-0.8-0.52-0.2-1.3,0.04-1.89
			c2.14-5.21,4.26-10.42,6.52-15.58C146.46,95.84,146.27,94.02,148.24,92.98z M147.9,100.36c-1.27,2.64-2.21,5.01-3.02,7.62
			c2.16,0.34,4.01,0.32,6.1,0.01C150.08,105.39,149.28,102.96,147.9,100.36z"/>
		<path class="st1" d="M184.9,76.2c-8.01,0-16.03,0-24.04,0c-0.79,0-1.58-0.03-2.38-0.03c-0.95,0-1.49-0.44-1.49-1.43
			c0.01-4.75,0.01-9.51,0.03-14.26c0-0.66,0.21-1.24,1.01-1.27c0.81-0.04,1.06,0.51,1.1,1.18c0.05,0.79,0.05,1.58,0.06,2.38
			c0.03,3.08,0.09,6.16,0.07,9.24c-0.01,1.35,0.54,1.95,1.88,1.84c0.35-0.03,0.7,0,1.06,0c15.58,0.04,31.17,0.07,46.75,0.12
			c0.96,0,1.93,0.05,2.89,0.17c0.47,0.06,0.71,0.47,0.69,0.97c-0.01,0.49-0.22,0.88-0.72,0.94c-0.78,0.09-1.58,0.13-2.37,0.13
			C201.28,76.2,193.09,76.19,184.9,76.2C184.9,76.19,184.9,76.2,184.9,76.2z"/>
		<path class="st1" d="M115.15,76.18c-8.19,0-16.38,0-24.58,0c-0.7,0-1.41-0.01-2.11-0.07c-0.61-0.05-0.94-0.42-0.93-1.05
			c0.02-0.63,0.39-0.97,0.98-1.02c0.79-0.06,1.58-0.07,2.38-0.08c8.1-0.01,16.21,0.01,24.31-0.01c7.75-0.02,15.5-0.06,23.25-0.1
			c2.35-0.01,2.39-0.02,2.44-2.31c0.06-3.08,0.04-6.17,0.07-9.25c0.01-0.7,0.01-1.41,0.07-2.11c0.05-0.59,0.38-0.95,1.03-0.93
			c0.65,0.02,0.93,0.42,1.01,0.99c0.06,0.43,0.08,0.88,0.08,1.32c0.01,4.05,0.03,8.1-0.01,12.16c-0.03,2.36-0.13,2.45-2.63,2.46
			C132.06,76.2,123.6,76.19,115.15,76.18C115.15,76.19,115.15,76.18,115.15,76.18z"/>
		<path class="st1" d="M152.27,72.19c-0.71-0.86-0.61-1.76-0.61-2.62c-0.01-8.61-0.03-17.22,0.01-25.82c0-0.85-0.47-2.27,0.97-2.31
			c1.61-0.04,1.19,1.46,1.19,2.4c0.04,8.52,0.02,17.04,0.02,25.56C153.86,70.57,153.88,71.74,152.27,72.19z"/>
		<path class="st1" d="M146.32,56.72c0-4.13,0-8.26,0-12.39c0-0.61,0.01-1.23,0.05-1.84c0.03-0.56,0.22-1.05,0.88-1.1
			c0.76-0.06,1.13,0.38,1.19,1.09c0.04,0.52,0.06,1.05,0.06,1.58c0.01,8.35,0.02,16.69,0.01,25.04c0,0.94,0.22,1.97-0.69,2.69
			c-0.58,0.46-1.14,0.63-1.32-0.32c-0.14-0.77-0.17-1.57-0.17-2.35C146.31,64.98,146.31,60.85,146.32,56.72z"/>
		<path class="st1" d="M124.56,69.03c-2.64,0-5.28,0.01-7.93-0.01c-0.61,0-1.23-0.06-1.84-0.14c-0.51-0.06-0.76-0.43-0.76-0.91
			c0-0.48,0.25-0.85,0.75-0.93c0.52-0.08,1.05-0.13,1.57-0.13c5.55-0.01,11.1-0.03,16.65,0.02c0.87,0.01,2.26-0.42,2.36,0.96
			c0.11,1.66-1.41,1.23-2.35,1.25c-2.82,0.07-5.64,0.03-8.45,0.03C124.56,69.12,124.56,69.07,124.56,69.03z"/>
		<path class="st1" d="M175.12,66.9c2.64,0,5.28-0.01,7.91,0c0.61,0,1.23,0.04,1.84,0.11c0.49,0.05,0.79,0.36,0.82,0.86
			c0.04,0.63-0.31,0.98-0.91,1.06c-0.52,0.07-1.05,0.09-1.58,0.1c-5.36,0.04-10.73,0.09-16.09,0.11c-0.7,0-1.4-0.07-2.09-0.18
			c-0.51-0.08-0.7-0.52-0.68-0.99c0.01-0.47,0.25-0.86,0.76-0.92c0.61-0.08,1.22-0.12,1.84-0.13c2.73-0.01,5.45-0.01,8.18-0.01
			C175.12,66.91,175.12,66.91,175.12,66.9z"/>
		<path class="st1" d="M176.61,133.51c-2.63,0-5.26,0.01-7.89-0.01c-0.61,0-1.23-0.04-1.83-0.12c-0.47-0.07-0.79-0.37-0.78-0.88
			c0-0.5,0.26-0.84,0.75-0.91c0.52-0.08,1.04-0.11,1.57-0.11c5.52-0.01,11.04-0.01,16.57-0.01c0.35,0,0.7,0,1.05,0.03
			c0.72,0.05,1.49,0.1,1.41,1.1c-0.07,0.82-0.77,0.87-1.38,0.87c-3.16,0.02-6.31,0.01-9.47,0.01
			C176.61,133.48,176.61,133.49,176.61,133.51z"/>
		<path class="st1" d="M121.91,131.43c2.46,0,4.91,0,7.37,0c0.61,0,1.23,0.01,1.84,0.04c0.63,0.03,1.31,0.09,1.35,0.91
			c0.04,0.99-0.76,1.02-1.46,1.08c-0.35,0.03-0.7,0.04-1.05,0.04c-5.44-0.01-10.88,0.01-16.32-0.05c-0.86-0.01-2.33,0.42-2.35-0.92
			c-0.02-1.58,1.55-1.02,2.45-1.05c2.72-0.09,5.44-0.03,8.16-0.03C121.91,131.45,121.91,131.44,121.91,131.43z"/>
		<path class="st1" d="M166.48,72.68c-1.49,0-2.99,0.02-4.48-0.01c-0.64-0.01-1.27-0.18-1.33-0.97c-0.08-0.96,0.61-1.15,1.36-1.19
			c2.8-0.14,5.61-0.39,8.42-0.26c0.26,0.01,0.53,0.03,0.79,0.07c0.76,0.12,1.36,0.43,1.29,1.33c-0.06,0.79-0.66,0.98-1.31,0.99
			c-1.58,0.02-3.16,0.01-4.74,0.01C166.48,72.67,166.48,72.67,166.48,72.68z"/>
		<path class="st1" d="M133,72.64c-1.49,0-2.97,0.01-4.46-0.01c-0.64-0.01-1.25-0.16-1.32-0.96c-0.08-0.94,0.56-1.19,1.32-1.23
			c2.97-0.16,5.95-0.11,8.92,0.09c0.67,0.05,1.19,0.23,1.19,1.06c0,0.83-0.52,1.05-1.19,1.06c-1.49,0.02-2.97,0.01-4.46,0.01
			C133.01,72.65,133,72.65,133,72.64z"/>
		<path class="st1" d="M108.46,133.39c-0.53-0.01-0.94-0.23-0.97-0.87c-0.03-0.63,0.31-0.94,0.91-0.95
			c0.57-0.01,0.99,0.19,1.02,0.85C109.45,133.06,109.12,133.35,108.46,133.39z"/>
		<path class="st1" d="M197.12,131.58c0.72-0.03,1.11,0.23,1.14,0.86c0.03,0.5-0.25,0.84-0.72,0.9c-0.54,0.07-1.05-0.06-1.14-0.72
			C196.31,132.01,196.62,131.66,197.12,131.58z"/>
		<path class="st1" d="M192.89,132.6c-0.04-0.63,0.25-1,0.88-1.01c0.47-0.01,0.83,0.22,0.88,0.75c0.07,0.65-0.28,0.98-0.89,1
			C193.3,133.36,192.95,133.12,192.89,132.6z"/>
		<path class="st1" d="M190.1,131.6c0.48-0.01,0.86,0.13,0.95,0.67c0.1,0.62-0.13,1.02-0.78,1.06c-0.45,0.03-0.87-0.1-0.95-0.65
			C189.21,132.06,189.45,131.68,190.1,131.6z"/>
		<path class="st1" d="M105.81,132.58c-0.1,0.63-0.52,0.81-1.11,0.73c-0.54-0.07-0.71-0.45-0.67-0.92c0.06-0.65,0.49-0.85,1.09-0.76
			C105.65,131.71,105.8,132.08,105.81,132.58z"/>
		<path class="st1" d="M102.19,132.69c-0.21,0.69-0.71,0.73-1.23,0.56c-0.47-0.16-0.61-0.57-0.47-1.03
			c0.19-0.65,0.71-0.71,1.22-0.55C102.18,131.82,102.26,132.26,102.19,132.69z"/>
	</g>
</g>
</svg>
