<?xml version="1.0" encoding="utf-8"?>
<!-- Generator: Adobe Illustrator 25.4.1, SVG Export Plug-In . SVG Version: 6.00 Build 0)  -->
<svg version="1.1" id="Layer_1" xmlns="http://www.w3.org/2000/svg" xmlns:xlink="http://www.w3.org/1999/xlink" x="0px" y="0px"
	 viewBox="0 0 300 200" style="enable-background:new 0 0 300 200;" xml:space="preserve">
<style type="text/css">
	.st0{fill:none;}
	.st1{fill:#AF8B8B;}
	.st2{font-family:'ModernSans';}
	.st3{font-size:24px;}
	.st4{letter-spacing:1;}
</style>
<rect x="0.5" y="4.5" class="st0" width="299" height="192"/>
<text transform="matrix(1 0 0 1 92.6167 185.6853)" class="st1 st2 st3 st4">penitant</text>
<g>
	<g>
		<path class="st1" d="M149.47,87.16h-10.48V59.37c0-5.75,4.68-10.43,10.43-10.43c5.85,0,10.53,4.68,10.53,10.43v25.77l-1.23,0.44
			C155.74,86.63,152.62,87.16,149.47,87.16z M142.68,83.46h6.78c2.3,0,4.58-0.33,6.78-0.98V59.37c0-3.71-3.02-6.73-6.73-6.73
			c-3.81,0-6.83,3.02-6.83,6.73V83.46z"/>
		<path class="st1" d="M149.52,121.69c-5.85,0-10.53-4.68-10.53-10.43v-10.53h10.48c2.78,0,5.56-0.28,8.26-0.83l2.22-0.45v11.81
			C159.95,117.01,155.27,121.69,149.52,121.69z M142.68,104.42v6.83c0,3.71,3.02,6.73,6.73,6.73c3.81,0,6.83-3.02,6.83-6.73v-7.34
			c-2.24,0.34-4.51,0.51-6.78,0.51H142.68z"/>
		<path class="st1" d="M156.25,103.97V82.52l1.23-0.44c10.02-3.54,16.46-13.07,16.01-23.71c-0.52-12.31-10.56-22.4-22.87-22.98
			c-11.32-0.53-21.58,7.02-24.42,17.94c-1.22,4.67-5.38,7.93-10.13,7.93c-3.35,0-6.35-1.47-8.34-4.03
			c-1.99-2.57-2.67-5.84-1.87-8.99c6.16-24.11,30.2-38.38,54.73-32.5c15.6,3.75,27.92,15.61,32.14,30.95l0,0
			c3.47,12.61,1.73,25.48-4.89,36.25c-6.52,10.61-17.22,18.1-29.37,20.57L156.25,103.97z M159.95,85.1v14.28
			c10.23-2.68,19.15-9.28,24.74-18.37c6.08-9.89,7.67-21.73,4.48-33.34l0,0c-3.86-14.05-15.14-24.91-29.44-28.34
			c-22.54-5.41-44.63,7.68-50.28,29.82c-0.52,2.03-0.08,4.15,1.21,5.81c1.28,1.65,3.22,2.6,5.32,2.6c3.17,0,5.86-2.12,6.65-5.17
			c3.28-12.6,15.13-21.3,28.17-20.7c14.2,0.66,25.79,12.31,26.39,26.51C177.68,70.05,170.8,80.69,159.95,85.1z"/>
		<path class="st1" d="M142.68,104.42h-10.53c-5.75,0-10.43-4.68-10.43-10.43v-0.1c0-5.75,4.68-10.43,10.43-10.43h10.53V104.42z
			 M132.16,87.16c-3.71,0-6.73,3.02-6.73,6.73v0.1c0,3.71,3.02,6.73,6.73,6.73h6.83V87.16H132.16z"/>
	</g>
	<path class="st1" d="M149.52,147.58h-0.1c-5.75,0-10.43-4.68-10.43-10.43c0-5.85,4.68-10.53,10.43-10.53
		c5.85,0,10.53,4.68,10.53,10.43C159.95,142.9,155.27,147.58,149.52,147.58z M149.52,130.32c-3.81,0-6.83,3.02-6.83,6.73
		c0,3.81,3.02,6.83,6.73,6.83h0.1c3.71,0,6.73-3.02,6.73-6.73C156.25,133.34,153.23,130.32,149.52,130.32z"/>
</g>
</svg>
